<?xml version="1.0" encoding="UTF-8"?>
<!DOCTYPE svg PUBLIC "-//W3C//DTD SVG 1.1//EN" "http://www.w3.org/Graphics/SVG/1.1/DTD/svg11.dtd">
<!-- Creator: CorelDRAW 2020 (64-Bit) -->
<svg xmlns="http://www.w3.org/2000/svg" xml:space="preserve" width="210mm" height="297mm" version="1.1" style="shape-rendering:geometricPrecision; text-rendering:geometricPrecision; image-rendering:optimizeQuality; fill-rule:evenodd; clip-rule:evenodd"
viewBox="0 0 21000 29700"
 xmlns:xlink="http://www.w3.org/1999/xlink"
 xmlns:xodm="http://www.corel.com/coreldraw/odm/2003">
 <defs>
  <style type="text/css">
   <![CDATA[
    .str0 {stroke:#2B2A29;stroke-width:67.73;stroke-linecap:round;stroke-linejoin:round;stroke-miterlimit:22.9256}
    .fil7 {fill:none}
    .fil0 {fill:#00CCFF}
    .fil8 {fill:#1A1A1A}
    .fil4 {fill:#2D5480}
    .fil1 {fill:#2F4173}
    .fil10 {fill:#34353A}
    .fil3 {fill:#37669A}
    .fil11 {fill:#4D463E}
    .fil13 {fill:#505050}
    .fil12 {fill:#BAAB98}
    .fil9 {fill:#FFCB95}
    .fil5 {fill:#FFDBB7}
    .fil6 {fill:#FFE5C9}
    .fil2 {fill:white}
   ]]>
  </style>
 </defs>
 <g id="Capa_x0020_1">
  <metadata id="CorelCorpID_0Corel-Layer"/>
  <circle class="fil0" cx="10111.56" cy="11128.21" r="7500"/>
  <g id="_2876504263808">
   <path id="Capucha" class="fil1" d="M13218.51 13085.81c0.01,-1368.77 -2064.02,-1642.7 -2980.99,-1642.7 -878.3,0 -3061.18,520 -2853.94,1816.55 1793.39,-912.84 4533.37,-987.24 5834.93,-173.85z"/>
   <path class="fil2" d="M9562.38 12166.7l-2474.8 722c-548.01,3360.75 -11.1,5237.36 3208.64,5333.43 3112.51,92.87 3781.15,-2413.3 3252.75,-5433.32l-2906.83 -662.11 -1079.76 40z"/>
   <path id="Sudadera" class="fil3" d="M12696.64 12543.65c-386.66,698.18 -593.1,2412.99 -2370.71,3996.51 -1495.82,-1686.21 -1846.52,-2907.91 -2313.68,-3987.78 -2281.4,641.64 -2444.34,1665.74 -2340.25,4621.3 792.76,516.64 1867.88,1450.54 4685.83,1450.56 2491.01,0.02 4262.49,-1517.69 4334.31,-1556.86 111.74,-2115.17 396.81,-4162.29 -1995.5,-4523.73z"/>
   <path class="fil4" d="M10355.93 16420.16c-1023.43,-1294.46 -2050.16,-3163.33 -2343.68,-3867.78l-746.8 218.94c0,0 1071.58,2140.3 1471.82,2788.53 400.24,648.23 1622.56,2053.13 1622.56,2053.13 0,0 1179.72,-1427.59 1614.24,-2104.81 434.52,-677.22 1303.6,-2886.35 1303.6,-2886.35l-682.52 -93.4c-822.65,1842.63 -1035.68,2602.86 -2239.22,3891.74z"/>
   <path id="Neck" class="fil5" d="M8987.51 12939.33c0,145.3 874.27,1587.5 1204.17,1587.5 483.16,0 1233.55,-1449.2 1233.55,-1673.49l0 -866.52 -2437.72 0 0 952.51z"/>
   <path id="Face" class="fil6" d="M7759.93 8238.6l74 903.43c-535.27,-118.27 -828.99,167.42 -764.68,726.59 121.18,581.38 483.67,597.43 807.29,640.27 53.14,255.69 106.93,405.8 219.79,789.21 112.86,383.41 733.3,895.78 1401.71,1287.37 243.36,78.77 907.7,182.86 1330.64,-35.42 726.43,-518.41 1124.15,-796.94 1255.63,-1261.47 65.72,-232.2 149.43,-534.61 187.65,-790.52 411.98,-85.97 698.49,-344.82 738.59,-787.19 11.31,-689.44 -568.25,-607.82 -681.12,-618.33 14.99,-533.86 60.39,-786 61.9,-893.61l-407.61 178.22 -173.71 -384.21 -3434.68 -1.93 -172.87 392.61 -442.53 -145.02z"/>
   <g id="Eyes">
    <path class="fil2" d="M9579.46 9983.79c0,0 -105.52,-360.26 -472.63,-380.11 -367.11,-19.85 -519.56,274.28 -519.56,274.28 0,0 125.84,211.1 466.5,227.64 340.66,16.54 525.69,-121.81 525.69,-121.81z"/>
    <path class="fil7 str0" d="M8587.27 9877.96c0,0 152.45,-294.13 519.56,-274.28 367.11,19.85 472.63,380.11 472.63,380.11"/>
    <path id="Eye_x0020_L" class="fil8" d="M9114.84 10084.38c-124.26,0 -225,-100.74 -225,-225 0,-189.63 219.03,-291.13 364.15,-176.81 -52.11,3.44 -93.32,46.78 -93.32,99.77 0,55.23 44.77,100 100,100 81.28,0 79.17,-74.34 79.17,-22.96 0,124.26 -100.74,225 -225,225z"/>
    <path class="fil2" d="M10537.28 9983.79c0,0 105.52,-360.26 472.63,-380.11 367.11,-19.85 519.56,274.28 519.56,274.28 0,0 -125.84,211.1 -466.5,227.64 -340.66,16.54 -525.69,-121.81 -525.69,-121.81z"/>
    <path class="fil7 str0" d="M11529.47 9877.96c0,0 -152.45,-294.13 -519.56,-274.28 -367.11,19.85 -472.63,380.11 -472.63,380.11"/>
    <path id="Eye_x0020_R" class="fil8" d="M11064.84 10084.38c-124.26,0 -225,-100.74 -225,-225 0,-189.63 219.03,-291.13 364.15,-176.81 -52.11,3.44 -93.32,46.78 -93.32,99.77 0,55.23 44.77,100 100,100 81.28,0 79.17,-74.34 79.17,-22.96 0,124.26 -100.74,225 -225,225z"/>
   </g>
   <path id="Nose" class="fil9" d="M10078.75 11061.87c-154.05,0 -314.04,-91.35 -361.99,-239.59 -36.37,-112.44 42.51,-534.06 120.52,-838.49 76.83,-190.54 241.46,-189.88 241.46,-189.88 0,0 164.63,-0.66 241.46,189.88 78.01,304.43 156.89,726.05 120.52,838.49 -47.95,148.24 -207.92,239.59 -361.97,239.59z"/>
   <path id="Smile" class="fil2" d="M10240.27 11452.16c-297.01,74.44 -565.19,-41.29 -572.17,198.43 -7.88,270.92 459.27,297.39 720.99,231.52 268.17,-67.49 644.28,-548.7 505.55,-694.52 -146.74,-185.72 -357.36,190.13 -654.37,264.57z"/>
   <g id="Facial_x0020_Hair">
    <path id="Eyebrown_x0020_R" class="fil10" d="M10266.47 9557.54c218.15,57.69 498.25,-81.44 761.12,-94.77 372.3,-18.88 655.32,64.42 744.91,-138.5 -97.91,-245.39 -652.31,-188.53 -884.62,-186.58 -147.64,1.23 -361.27,16.94 -484.24,56.38 -122.17,39.19 -86.33,-5.56 -132,114.45 -39.3,103.27 -30.63,152.22 -5.17,249.02z"/>
    <path id="Eyebrown_x0020_L" class="fil10" d="M9827.99 9531.89c24.87,-149.95 3.14,-291.58 -106.09,-346.53 -213.22,-107.26 -1149.02,-100.16 -1330.78,9.38 -148.01,89.19 -89.46,191.3 68.08,224.28 129.71,27.15 347.16,7.71 489.55,13.13 302.78,11.53 636.5,151.19 879.24,99.74z"/>
    <path class="fil11" d="M10174.24 12137.15l-661.46 456.35c0,0 287.74,148.9 661.46,138.98 373.72,-9.92 667.84,-185.36 667.84,-185.36l-667.84 -409.97z"/>
   </g>
   <g id="Hair">
    <polygon class="fil12" points="8202.46,8383.62 7873.61,9571.49 7759.93,8238.6 "/>
    <polygon class="fil12" points="11983.72,8377.15 12290.21,9571.49 12391.33,8198.93 "/>
    <polygon class="fil13" points="8375.33,7991.01 7673.54,7289.22 7759.93,8238.6 8202.46,8383.62 "/>
    <polygon class="fil13" points="11810.01,7992.94 12514.98,7038.24 12391.33,8198.93 11983.72,8377.15 "/>
    <path class="fil10" d="M7759.93 8238.6l442.53 145.02 172.87 -392.61 3434.68 1.93 173.71 384.21 407.61 -178.22c31.01,-99.11 135.43,-1077.11 123.65,-1239.38 -26.41,-363.91 -127.01,-817.23 -255.7,-1122.53 -266.04,-631.19 -391.73,-606.21 -718.67,-557.01 -363.51,54.7 -2178.36,290.06 -2379.23,377.36 -246.1,106.96 -651.07,454.48 -784.75,590.8 -182.88,186.51 -446.1,506.25 -620.13,754.95 -147.2,210.34 -64.72,302.7 -43.65,559.19 19.5,237.33 29.17,454.19 47.08,676.29z"/>
   </g>
  </g>
 </g>
</svg>
